<?xml version="1.0" encoding="UTF-8"?>
<!-- Created with Inkscape (http://www.inkscape.org/) -->
<svg width="210mm" height="133mm" version="1.1" viewBox="0 0 210 133" xmlns="http://www.w3.org/2000/svg">
 <g transform="translate(-172.24 42.869)">
  <g transform="translate(241.83 -152.47)">
   <g fill="#fdf7f7" stroke="#b3b3b3" stroke-width=".26458">
    <circle cx="65.425" cy="214.59" r=".023504"/>
    <circle cx="65.425" cy="214.59" r=".023504"/>
    <circle cx="65.516" cy="214.75" r=".023504"/>
    <circle cx="65.516" cy="214.75" r=".023504"/>
   </g>
   <g fill="none" stroke="#000" stroke-width=".26458px">
    <path d="m70.556 214.25-0.11881-3.613 41.922-1.7256 0.26586 4.6357z"/>
    <path d="m73.314 210.67-0.30246-3.1753 37.82-1.2359 0.60936-0.0608 0.16462 2.7573"/>
    <path d="m75.051 207.51v-1.9295l6.5131-0.35401-0.0064 2.1016"/>
    <path d="m76.744 205.59-0.15246-1.8549 2.8583-0.0996-0.14462 1.747"/>
    <path d="m76.592 203.73-1.7436 0.18501 0.04331-1.4051 6.2492-0.27856 0.03923 1.6927-1.7298-0.29363"/>
    <path d="m75.569 202.39-0.31352-14.332 5.0547-0.16764 0.8306 14.343"/>
    <path d="m75.368 189.24 4.9391 0.0314"/>
    <path d="m77.456 187.9-0.13723-1.2716 1.2793-0.18845-0.07991 1.1615"/>
    <path d="m90.356 206.65v-1.9295l6.5131-0.35401-0.0064 2.1016"/>
    <path d="m92.049 204.73-0.15246-1.8549 2.8583-0.0996-0.14462 1.747"/>
    <path d="m91.896 202.88-1.7436 0.18501 0.04331-1.4051 6.2492-0.27856 0.03923 1.6927-1.7298-0.29363"/>
    <path d="m90.874 201.53-0.31352-14.332 5.0547-0.16764 0.8306 14.343"/>
    <path d="m92.761 187.05-0.13723-1.2716 1.2793-0.18845-0.07991 1.1615"/>
    <path d="m104.93 206.38v-1.9295l6.5131-0.35401-6e-3 2.1016"/>
    <path d="m106.63 204.46-0.15246-1.8549 2.8583-0.0996-0.14463 1.747"/>
    <path d="m106.47 202.6-1.7436 0.18501 0.0433-1.4051 6.2492-0.27856 0.0392 1.6927-1.7298-0.29363"/>
    <path d="m105.45 201.26-0.31352-14.332 5.0547-0.16764 0.8306 14.343"/>
    <path d="m107.34 186.77-0.13723-1.2716 1.2793-0.18845-0.0799 1.1615"/>
    <path d="m77.319 186.63-1.9581-0.23831s-0.3599-0.76118 0.02522-0.77564c0.38511-0.0145 4.5845-0.22085 4.5845-0.22085l-0.0753 1.2418-1.297-0.19546"/>
    <path d="m75.289 185.68-1.9495 0.0625-0.16838-2.1703 38.053-1.9938-0.0498 2.572-4.7496 0.39916-0.0548-0.54661-15.54 0.79912-10.86 0.59266"/>
    <path d="m79.895 186.64 26.439-1.7089 8e-3 0.54201 3.6102 0.0363-0.273-1.0213"/>
    <path d="m90.873 185.69v-0.86939"/>
    <path d="m95.306 185.63-0.17729-0.86923"/>
    <path d="m83.149 206.91c-0.26466-0.12575-0.34522-8.1765-0.34522-8.1765l-0.05991-3.5778 0.79845-2.9748 2.0353-1.8645 2.5117 0.0308 0.81583 1.7651 0.80228 9.6166-0.30936 5.0768"/>
    <path d="m98.445 206.42-1.0417-14.698 0.93783-1.6042 2.2396-0.94907 1.7254 0.19791 0.94261 0.38054 0.89682 0.81392 0.78836 15.814"/>
   </g>
   <g fill="#fdf7f7" stroke="#b3b3b3" stroke-width=".26458">
    <circle cx="74.87" cy="183.47" r=".023504"/>
    <circle cx="74.87" cy="183.47" r=".023504"/>
    <circle cx="74.835" cy="180.49" r=".023504"/>
    <circle cx="74.835" cy="180.49" r=".023504"/>
   </g>
   <g fill="none" stroke="#000" stroke-width=".26458px">
    <path d="m75.181 183.31-0.05406-2.8307 32.454-1.3919 0.16554 2.73"/>
    <path d="m75.127 180.48-3.0458 0.57333-0.48951-2.6555 38.59-1.7779 0.53828 2.4238-3.1384 0.0443"/>
    <path d="m71.592 178.4 18.38-23.272 20.21 21.494"/>
    <path d="m78.436 174.92 11.131-15.125 14.467 14.488z"/>
    <path d="m71.42 168.51-1.3917-0.4565s1.2048-0.83825 1.2048-1.246-0.4414-1.6328-0.4414-1.6328l-1.4325-0.75206 1.0981-0.98522-0.25551-1.0637-1.1474-0.34541 1.3558-0.85451-0.37737-1.1323-0.98627-0.42404 0.71077-1.4516-1.0429-1.0253 17.566-1.4283-1.2314 1.9185 1.1192 0.80563-1.3471 0.82167-0.59259 0.86795 0.60462 1.1375 0.9229 0.0879s-0.55168 0.0707-0.67589 0.43109c-0.12421 0.36043-0.36465 0.99754-0.36465 0.99754l-0.04343 0.97713 0.86865 0.36458 0.01799 0.61532 0.17566 1.3509 0.54004 0.39655 0.87488 0.70368z"/>
    <path d="m72.707 166.58c-0.14011-0.58758-0.59097-7.6417-0.59097-7.6417l10.284-1.0304 0.80533 8.0369z"/>
    <path d="m72.817 162.8 0.84601-1.8106 1.1652 1.5506-2.2539-0.63627 2.0556-0.40482z"/>
    <path d="m79.863 164.8c0.03545-0.0996 1.07-1.867 1.06-1.8047-0.01 0.0624 0.9672 1.4044 0.9672 1.4044s-2.6547-0.64954-2.5786-0.68182c0.0761-0.0323 2.7723-0.41647 2.7723-0.41647z"/>
    <path d="m74.657 160.09 2.6468-1.1635s0.30229 0.88094 0.34349 1.0132c0.0412 0.13223 0.26582 1.3876 0.20226 1.6494-0.06355 0.26175-0.32312 1.1234-0.32312 1.2827 0 0.15931-0.26905 0.6472-0.26905 0.6472l-0.90671-0.24504s-0.41345-0.72783-0.61918-0.93357c-0.20574-0.20574-1.1019-0.84209-1.1019-0.84209z"/>
    <path d="m77.883 159.69 0.78215 1.0153s0.89331 0.29983 1.062 0.33127c0.16865 0.0314 0.41189 0.0605 0.74726 0.0605s0.57752-0.0625 0.57752-0.0625-0.39462 0.77649-0.5786 0.96212c-0.18398 0.18563-0.3823 0.79905-0.74871 1.1591-0.36641 0.36002-1.4742 0.95193-1.4742 0.95193l-0.6943-1.3214z"/>
    <path d="m112.63 213.55 0.80965-12.036 2.3126-1.1345 2.397-1.1668s0.82864-0.72327 0.82864-0.99321-0.65883-2.3188-0.81741-2.6577c-0.15857-0.33894-1.4096-2.219-1.4096-2.219l-2.2167 0.44904-1.4222 1.4056 0.58906 1.3118 1.2642 0.6971 0.51041-0.16257"/>
    <path d="m114.48 201.06-1.5884-0.0872s-0.94936-0.42361-1.0005-0.52138c-0.0511-0.0978-0.40734-0.86519-0.50147-1.0664-0.0941-0.20121-0.54128-1.1799-0.54128-1.1799l-0.0278-2.7678 0.69956-1.6798 0.79309-1.7939 0.96883-1.2173s1.05-0.90446 1.1877-0.9701c0.13767-0.0656 0.54503-0.33213 0.91491-0.42105 0.36988-0.0889 2.286-0.38003 2.286-0.38003l2.0389-0.14175 11.806 0.32867 1.9065 0.17338 1.3607 0.23574 0.85706 0.72739s0.22752 0.44836 0.32457 0.58947c0.0971 0.14111 0.6702 0.78069 0.70775 0.98492 0.0375 0.20424 0.37507 1.0252 0.41771 1.145 0.0426 0.11974 0.32087 0.97154 0.32087 1.285 0 0.31349 0.11173 0.64823 0 0.95449-0.11173 0.30627-0.53276 1.3423-0.66343 1.5972-0.13066 0.25485-0.40288 1.0386-0.83743 1.3951-0.43456 0.35642-0.64501 0.52409-1.4617 0.98037-0.81664 0.45628-1.1733 0.646-1.7236 0.84557-0.55029 0.19958-1.4914 0.45785-1.7728 0.34725-0.2813-0.1106-0.62653-0.21986-1.1448-0.59755s-1.0586-0.73376-1.238-1.3171c-0.17937-0.58329-0.40277-0.81847-0.40277-1.2952 0-0.47677-0.11861-0.77828 0.28996-1.3013 0.40857-0.52305 0.64221-0.83935 0.89635-0.97001 0.25415-0.13066 0.26551-0.2219 0.72652-0.31072 0.46102-0.0888 1.0638-0.33127 1.4032-0.15552 0.33937 0.17576 0.54537 0.0161 0.76849 0.6182 0.22311 0.60205 0.44542 0.46642 0.33426 1.1556-0.11115 0.68915 0.0731 0.75267-0.29323 0.86105-0.36633 0.1084-1.0471 0.0926-1.0471 0.0926l-0.0399-0.018"/>
    <path d="m134.46 199.87-0.14843 12.69-0.11483 1.0701"/>
    <path d="m119.04 188.62c0-0.43122-0.11575-3.5438-0.21006-3.8502-0.0943-0.30644-0.99775-2.4478-0.99775-2.4478s-0.81439-0.61978-0.9444-0.61978h-1.208s1.5053-1.5546 1.9033-1.7673c0.398-0.21265 3.4939-1.4066 3.635-1.4664 0.14103-0.0599 2.2683-0.27594 2.5602-0.27594 0.29192 0 4.0293-0.0181 4.3573-0.048 0.32804-0.03 1.9888 0.41275 2.2681 0.47696 0.27932 0.0642 2.649 1.4163 2.649 1.4163l1.6458 1.1974-1.4712 0.59499-0.96061 1.7345s-0.41067 2.3988-0.41067 2.5332c0 0.13434-0.22336 2.3103-0.22336 2.3103l0.19978 0.65683"/>
    <path d="m123.36 178.24-0.13991-1.756"/>
    <path d="m127.93 177.96 0.11405-1.8479"/>
    <path d="m128.04 176.11s-1.1121-0.11694-1.2741 0.0451c-0.162 0.162-0.47638 0.35063-0.47638 0.35063s-2.5352-0.87913-2.5666-1.0538c-0.0314-0.1747-1.7032-1.274-1.8342-1.4997-0.13107-0.22569-0.60075-0.8191-0.69507-1.3014-0.0943-0.48225 0.19689-0.45461-0.18713-0.69932-0.38401-0.2447-0.9259-0.32551-1.0457-0.68571-0.11978-0.36021-0.3144-1.1027-0.3144-1.1027s0.0333-0.62512 0.15386-0.80095c0.12052-0.17584 0.39012-0.50546 0.39012-0.50546s0.65492-0.0471 0.81353-0.10408c0.15861-0.057 0.53198-0.20475 0.53198-0.20475l0.40871-1.544s0.53302-0.62638 0.66253-0.72445c0.1295-0.0981 0.64096-0.56379 0.84754-0.6866s1.2838-0.65768 1.5225-0.71715c0.23867-0.0595 0.81057-0.0288 1.1729-0.0595 0.36232-0.0307 0.65651-0.12558 0.91095-0.12558 0.25443 0 1.037-0.0229 1.3335 0.12576 0.29656 0.1487 1.2924 0.83788 1.2924 0.83788l0.75145 0.85034s0.3733 0.46287 0.58154 0.98393 0.45815 0.98234 0.45815 0.98234l0.45499 0.12767 0.34753 0.0619s0.11183-0.11777 0.22875 0.33149c0.11691 0.44927 0.17979-0.22717 0.14835 0.58635-0.0314 0.81351-0.12153 0.6961-0.12153 1.0542s-0.0595 0.60622-0.21629 0.91834c-0.15681 0.31211-0.16738 0.46029-0.33655 0.55324-0.16917 0.093-0.59748-0.40927-0.59748-0.40927l-0.15945-0.43528s-0.34397 1.5408-0.65796 2.0116c-0.31399 0.47078-1.2711 2.0626-1.4046 2.1738-0.13354 0.11119-1.1238 0.66506-1.1238 0.66506"/>
   </g>
  </g>
  <g transform="translate(127.36 -75.057)" fill="none" stroke="#000" stroke-width=".26458px">
   <path d="m67.194 70.698 2.0914 0.95616 3.7439 1.9643s1.0711 2.5281 1.1156 2.9149c0.04446 0.3868 0.57673 1.9534 0.31535 2.3864-0.26139 0.43303-0.73514 1.4566-1.3285 1.4112s-1.9403-1.0831-1.9403-1.4776c0-0.39452-0.07727-1.2816 0.08836-2.0158 0.16563-0.73422 1.4009-3.5123 1.6561-3.7231 0.25521-0.21074 2.4455-1.9497 2.776-2.2008 0.33047-0.25107 3.561-2.1234 4.2287-2.4781 0.66769-0.35477 4.248-3.4715 4.248-3.4715"/>
   <path d="m56.655 61.611c0.5141-0.95763 2.5839-3.2094 2.5839-3.2094l2.3401-1.8396 2.1258-0.71236 0.4013 0.58677s-0.55391 0.73255-0.96853 0.90983-1.4979 0.89743-1.7918 1.066c-0.29392 0.16853-1.0047 0.58407-1.2169 0.74074-0.21212 0.15667-0.11802 0.32413 0.10705 0.92059 0.22506 0.59646 6.1397 8.1995 6.1397 8.1995s1.5955-0.48013 2.2018-0.91274c0.60635-0.43261 1.7983-1.0331 2.3221-1.2978 0.52378-0.26465 1.7335-0.72757 1.5112-0.20644-0.22231 0.52113-0.55388 1.1255-1.2653 1.7925-0.71138 0.66692-3.9508 3.0498-3.9508 3.0498s-1.301 0.27915-2.1813 0.45644c-0.88025 0.1773-0.88659 0.69149-1.302 0.2363-0.41542-0.45519-7.0564-9.7802-7.0564-9.7802z"/>
   <path d="m66.375 68.273 3.762-2.785"/>
   <path d="m65.435 66.964 3.925-2.3482"/>
   <path d="m64.957 66.206c0.10597-0.32348 3.9173-2.4915 3.9173-2.4915"/>
   <path d="m64.388 65.584 4.0334-2.6383"/>
   <path d="m63.904 64.817 3.6886-2.3603"/>
   <path d="m63.355 64.325 3.6748-2.331"/>
   <path d="m62.976 63.796 3.3911-2.2113"/>
   <path d="m62.516 63.278 3.5114-2.2184"/>
   <path d="m62.024 62.582 3.4097-1.9448"/>
   <path d="m61.584 61.882 3.0081-1.6899"/>
   <path d="m61.003 61.142c0.11293-0.06441 3.0581-1.5787 3.0581-1.5787"/>
   <path d="m60.551 60.536 3.4589-1.5917"/>
   <path d="m60.099 59.949 3.2117-1.9382"/>
   <path d="m78.038 68.652-0.41702 0.60623 0.59746 0.67493 0.68015-0.09572 0.15679-1.0865-0.55774-0.39421z"/>
   <path d="m78.218 69.933-0.09524 2.4319s0.25851 0.73034 0.34308 0.89987c0.08457 0.16953 0.30554 0.79851 0.30554 0.98351 0 0.185-0.31006 1.5077-0.31006 1.685 0 0.17731-0.27824 1.0101-0.53407 1.2447-0.25583 0.23456-0.92936 0.50088-0.92936 0.50088l-0.47261 0.62588-0.88639 0.57998s-0.53979 0.32865-0.53582 0.15192c4e-3 -0.17674 0.61527-0.94442 0.66055-1.077 0.04528-0.13257 0.1396-0.53115 0.1396-0.53115l-0.76327-0.93969s-0.39187-0.98755-0.39187-1.2719c0-0.28431 0.0097-0.71748 0.18724-1.0948 0.17756-0.37729 0.5561-1.0021 0.74283-1.1318 0.18673-0.12965 0.37866-0.16506 0.73992-0.40836 0.36126-0.2433 0.71952-0.53172 0.77056-0.78329 0.05103-0.25156 0.43192-2.5408 0.43192-2.5408"/>
   <path d="m78.898 69.838 0.01728 0.45868 0.55731 0.96152 0.14883 0.63186s-0.0145 0.6114-0.06166 0.70179c-0.04716 0.0904-0.37824 0.73226-0.37824 0.79872 0 0.06646-0.09538 0.88638-0.09538 0.88638s0.03124 0.79063 0.04696 0.87222c0.01572 0.0816 0.09402 0.74112 0.09402 0.74112s0.30363 0.57386 0.38261 0.62897c0.07897 0.05511 0.42106 0.26013 0.63081 0.27585 0.20975 0.01572 0.87072-0.17375 1.005-0.26643 0.13432-0.09268 0.55806-0.4124 0.66735-0.62497s0.42087-0.72137 0.46494-1.0294c0.04406-0.308 0.10841-0.89601 0.09269-1.1925-0.01572-0.29653-0.08432-0.80173-0.21682-0.90153-0.1325-0.0998-0.54208-0.36878-0.74321-0.42957-0.20113-0.06079-0.73187-0.1391-0.81353-0.25221-0.08167-0.1131-0.14067-0.13474-0.25419-0.46928-0.11352-0.33453-0.25656-0.70403-0.288-0.85413-0.03144-0.1501-0.07753-0.48017-0.21881-0.6954-0.14128-0.21523-0.36428-0.52484-0.36428-0.52484l-0.51692-0.80331"/>
   <path d="m78.079 67.186c-0.11252-0.38069-2.5002-4.421-2.5002-4.421l-0.58023-0.01447s1.1019 2.8567 1.3396 3.3323c0.23766 0.47559 1.2828 3.1753 1.2828 3.1753"/>
   <path d="m78.079 67.186 2.3991-6.6969 0.20364 0.06698 0.37859 1.0157-2.005 7.179"/>
   <path d="m77.621 69.259 0.45805-2.0721"/>
   <path d="m75.982 75.953 0.083-1.0948 0.40624-0.583 0.43038-0.48784s0.33651-0.01455 0.43416 0.04209c0.09765 0.05663 0.34035 0.22074 0.34035 0.22074s0.35299 0.27805 0.35299 0.36217c0 0.08412-0.11263 0.34685-0.12672 0.52344-0.01408 0.17659-0.15903 0.77326-0.15903 0.77326l-0.41489 0.395-0.6383 0.41835-0.41228-0.1427z"/>
   <path d="m79.879 74.592 0.12156-0.9608 0.33724-0.31891s0.50052-0.19721 0.56607-0.19721c0.06556 0 0.45426 0.09327 0.45426 0.09327s0.20095 0.28954 0.20095 0.4019c0 0.11235 0.03144 0.5971 0.03144 0.66586s-0.08431 0.40526-0.1887 0.50965c-0.10439 0.10439-0.53301 0.48232-0.62388 0.49804-0.09087 0.01572-0.54922 0.019-0.54922 0.019z"/>
   <path d="m57.327 60.734s-2.6064-3.0428-2.6064-3.2679c0-0.22506-1.5591-4.5962-1.5591-4.5962s0.7184-2.6148 0.84968-3.1421c0.13128-0.52732 1.208-3.3046 1.5117-3.6092s1.9557-1.8688 2.2111-2.1241c0.25536-0.25535 2.5758-1.7638 2.8285-1.9356 0.25274-0.17177 2.9016-1.1063 2.9016-1.1063s2.7507-0.26701 3.3976-0.26701 3.4255 0.65434 3.7502 0.68931c0.32471 0.03497 2.4237 1.5042 2.4237 1.5042l1.4193 1.9758 1.8515-2.0862 1.8598-1.0228 1.9529-0.4424 2.0857 0.11817"/>
   <path d="m82.348 47.163s2.5166-1.0328 3.0409-1.8203 1.8766-3.222 1.8766-3.222 1.6458 2.7486 1.8526 3.1329c0.20678 0.38433 2.1473 1.946 2.1473 1.946s1.0517 0.57035 1.6231 1.2307c0.57141 0.66033 1.0788 1.4299 1.5168 2.0001 0.43795 0.57026 1.0156 1.1465 1.4039 2.1328 0.3883 0.98629 0.72955 1.5495 0.86294 2.2546 0.13338 0.70514 0.13338 1.0052 0.13338 1.9372s-0.05478 2.2256-0.43492 2.4724c-0.38013 0.24675-1.1901 0.95465-1.7861 0.95465-0.59604 0-1.798-1.4298-2.1218-1.4298-0.3238 0-0.39328-0.30598-0.70337 0.0842-0.31009 0.39018-0.75007 0.48246-1.1924 1.0051-0.44231 0.52259-1.3003 1.2253-1.7298 1.5878-0.42944 0.36247-1.7516 2.528-1.7516 2.528l-1.2553 1.4765s-0.42432 0.27946-0.49535 0.27946c-0.07102 0-0.53398-0.15621-0.62027-0.17844-0.08628-0.02223-0.52518-0.57029-0.52518-0.57029"/>
   <path d="m84.189 64.964s-0.72635-0.89245-0.72635-0.9737c0-0.08125 0.07869-0.49286 0.1232-0.64315 0.0445-0.15028 0.18868-0.51829 0.28872-0.6288 0.10004-0.11051 0.53967-0.43047 0.67306-0.59719 0.13338-0.16673 0.73131-1.1712 0.90497-1.2587 0.17366-0.08753 2.8636-3.1996 2.9655-3.3126s0.48095-0.87266 0.52489-1.0492c0.04393-0.17652 0.13812-0.98002 0.1937-1.1801 0.05558-0.20007 0.04446-0.75939 0.04446-0.83706 0-0.07767-0.80534-2.3449-0.9051-2.5112-0.09977-0.16632-0.99955-1.8235-1.0551-1.9084-0.05558-0.08486-0.79914-0.84204-0.79914-0.84204l-1.404-1.1585s-0.82662-0.38347-0.88111-0.43673c-0.05448-0.05327-1.789-0.46412-1.789-0.46412"/>
   <path d="m86.585 49.434c0.06597-0.07874 3.4537-3.2255 3.4537-3.2255"/>
  </g>
  <g transform="translate(152.29 -76.101)" stroke="#000" stroke-width=".26458px">
   <g fill="none">
    <path d="m106.73 143.22 3.7231 0.26565s3.9946-0.1599 4.854-0.43019 6.131-2.2692 6.131-2.2692l4.1484-3.2052 3.1061-4.0784 3.889-7.3589 2.0301-5.099 1.7618-6.6695 0.62915-5.9919s-0.75117-11.898-0.75117-12.322c0-0.42333-0.79531-4.9938-0.88423-5.3552-0.0889-0.36142-1.8687-6.4728-1.8687-6.4728l-1.859-3.7671"/>
    <path d="m129.69 77.392c-0.0544-0.12252-2.7373-3.3472-2.8666-3.5412-0.12935-0.19403-2.236-2.1602-2.236-2.1602s-1.7979-1.3593-1.939-1.424c-0.14108-0.06469-2.5006-1.0489-2.5006-1.0489"/>
    <path d="m102.25 67.1-3.1555 2.1155-2.461 2.5336-3.1451 3.2305 0.0805 0.21574"/>
    <path d="m90.915 79.106s-2.184 5.6883-2.2682 5.9011c-0.08414 0.21274-1.6633 4.9515-1.6633 4.9515l-0.46492 4.9211-0.82192 5.172 0.38311 9.0184 0.96532 6.6429 1.2429 3.9902 1.4811 4.709 1.8924 4.116 1.6265 2.908 2.1395 3.6752 3.0234 3.7503 3.4283 2.5822 3.1244 1.2649 1.729 0.51452"/>
    <path d="m98.223 85.549-6.725-5.9315s-0.30234-0.3374-0.31961-0.35405c-0.01728-0.01664-0.1506-0.2694-0.1506-0.2694s0.0053-0.14991 0.01244-0.17041c0.0072-0.0205 0.10484-0.17735 0.11873-0.18846 0.01389-0.01111 1.1879-1.7663 1.2434-1.8361 0.05543-0.06981 1.2667-1.1659 1.3298-1.2155 0.06309-0.04952 2.1524-1.4109 2.2881-1.4654 0.13566-0.05455 4.2038-2.1776 4.2038-2.1776l2.6549-1.4792 0.17384 4.0103-5.6093 2.9884s-1.3024 0.91097-1.4078 0.98609c-0.10538 0.07512-0.47096 0.56644-0.47096 0.56644s1.1875 1.1662 1.3109 1.2739c0.1234 0.10768 1.0686 0.8247 1.1748 0.91773 0.10617 0.09303 1.1444 0.98732 1.1444 0.98732z"/>
    <path d="m103.33 70.645s0.26487-2.3769 0.37119-2.6808c0.10631-0.30389 0.38717-1.4775 0.55388-1.5798 0.16671-0.1023 1.1574-0.70784 1.2784-0.72824 0.12106-0.0204 0.74912-0.10933 0.74912-0.10933s-0.94813-0.54856-1.0442-0.56379c-0.0961-0.01524-0.60593-0.282-0.60593-0.282l1.626 0.1685 0.32169 0.10715s-0.26382-0.75859-0.56153-0.87846c-0.29772-0.11987-2.1002-0.4805-2.2396-0.4805-0.13934 0-1.5332 0.3391-1.6821 0.38133-0.1489 0.04222-1.1136 0.28951-1.1136 0.28951s3.5531-1.5589 3.9728-1.6695c0.41979-0.11057 2.4947-0.44849 2.5994-0.38393 0.10475 0.06456 1.5624 0.6328 1.7339 0.71704 0.1715 0.08425 2.3498 1.0095 2.4143 1.1142 0.0645 0.10468 0.74036 0.74433 0.77939 0.86548 0.039 0.12116 0.93005 0.96675 1.1462 0.96675s0.74491-0.19858 1.0329-0.19858 1.0894 0.68031 1.1348 0.88901c0.0454 0.2087 0.24658 1.1887 0.24658 1.531 0 0.34233-0.10044 1.9133-0.21208 2.382-0.11164 0.46871-0.25076 1.1157-0.29639 1.5541-0.0456 0.43842-0.36574 2.8821-0.36574 3.071 0 0.1889 0.57402 0.57927 0.57402 0.57927s0.70526 0.62676 0.70526 0.88572c0 0.25896-0.0675 0.82886-0.15329 0.98688-0.0858 0.15802-0.45295 0.6669-0.79251 0.83812-0.33957 0.17122-0.75246 0.28132-0.75246 0.28132s-0.13932 1.2498-0.15925 1.3708c-0.0199 0.12105-0.28684 0.985-0.28684 0.985l-0.10872 0.4011"/>
    <path d="m114.75 78.699 0.37169-3.5285"/>
    <path d="m114.2 81.456 4.0138 0.18735 2.2522-16.773 10.31 3.0031 8.1362 2.4462 0.79348-2.5888"/>
    <path d="m135.11 66.546c-0.25799-0.14599-14.142-4.7253-14.142-4.7253l-0.67241-0.83445"/>
    <path d="m99.195 82.192 1.3904 0.45476-2.3243 6.4366-1.5671-0.72419 1.5293-2.8098"/>
    <path d="m100.59 82.647 0.39913-0.37801s1.745 1.9804 1.745 2.0822c0 0.1018 1.5508-1.8293 1.5508-1.8293"/>
    <path d="m98.261 89.083 2.6005 2.1214 0.49766 3.2046 0.27386 3.7313s0.97291 4.3342 0.97291 4.4805 0.81549 1.9478 0.81549 1.9478 0.26444 3.5236 0.26444 3.6471-0.21388 2.0336-0.21388 2.2454-0.0524 0.18684 0.53883 0.14478c0.59121-0.0421 5.6402-0.64773 6.0238-0.64773s5.7534-0.57727 5.8635-0.62118c0.11001-0.0439 3.5551-0.28456 3.5551-0.28456l-1.603-7.5228-0.65147-6.9922 0.26566-2.8821 3.9037-1.421 1.3739-0.35828 0.56832-1.524"/>
    <path d="m122.74 89.876-1.3633-0.80301-0.46616-2.4025 0.55358-1.7409 0.26289 0.05251 1.013 4.8938"/>
    <path d="m121.47 84.93-2.1328 0.22259s-1.167 0.53133-1.4528 0.64116c-0.28583 0.10983-2.4642 0.43233-2.4642 0.43233l1.4151-2.3047-0.33986-2.2943"/>
    <path d="m111.54 85.669s1.6223-1.5713 1.7112-1.908c0.0889-0.33664 0.95014-2.3057 0.95014-2.3057"/>
    <path d="m103.05 74.472 0.3853 1.6375s0.31032 2.103 0.32029 2.2465c0.01 0.14347 0.45762 2.7702 0.48622 2.8563 0.0286 0.08608 0.37439 1.4447 0.44978 1.6754 0.0754 0.23062 0.93067 1.8571 0.93067 1.8571s0.54916 0.61188 0.70764 0.68906c0.15848 0.07717 0.8819 0.23544 1.337 0.3612 0.45508 0.12576 1.7163 0.24984 1.9496 0.23412 0.23332-0.01572 0.98997-0.20763 1.14-0.20763 0.15009 0 0.77577-0.15207 0.77577-0.15207"/>
    <path d="m103.52 78.638c-0.0574 0.07171-0.84242 0.06267-0.99365 0.06267-0.15124 0-0.55637-0.30713-0.6339-0.45318-0.0775-0.14605-0.36033-0.42047-0.36033-0.63321 0-0.21274-0.0948-0.71049-0.0793-0.93015 0.0155-0.21967 0.0127-0.56287 0.2018-0.73606 0.18905-0.17319 0.43743-0.28028 0.58937-0.3424 0.15195-0.06212 0.30552-0.06117 0.4766-0.13926 0.17108-0.07808 0.45766-0.12554 0.45766-0.12554"/>
    <path d="m102.61 84.455-1.2609 3.6112s0.30709 3.5526 0.33955 3.7125c0.0325 0.15984 0.89342 2.2662 0.93788 2.3899 0.0445 0.12371 0.95342 1.5623 1.1541 1.8503s0.64931 0.97875 0.73748 1.3758c0.0882 0.39707 0.59465 0.87588 0.71687 0.79584 0.12223-0.08004 1.882-0.42885 1.8555-0.74859-0.0265-0.31974-1.5995-3.4454-1.6886-3.7066-0.0891-0.26118-0.35131-0.99256-0.49668-1.8253-0.14536-0.83275-0.45664-1.9595-0.43395-2.4283 0.0227-0.46878 0.2924-3.2674 0.2924-3.2674l0.8624-1.4699"/>
    <path d="m104.86 98.32s-0.0764 0.63418-0.20732 0.69992c-0.13096 0.06574-1.3498 0.62646-1.372 0.85514-0.0222 0.22868-0.13274 0.8594-0.13274 0.8594l1.0133 0.0522s0.85255-0.18055 1.1555-0.28819c0.30294-0.10765 1.223-0.42414 1.4663-0.5567 0.2433-0.13255 0.77483-0.4408 0.95268-0.55196 0.17784-0.11115-0.62208-1.7708-0.62208-1.7708"/>
    <path d="m111.56 99.171c-0.0222 0.11467-0.4796 1.0333-0.4796 1.0333l2.9055-0.19783 0.0983-0.96776z"/>
    <path d="m111.08 100.2-1.4594 1.2662s-0.38624 0.38235-0.32148 0.54029c0.0648 0.15794 0.23657 0.29105 0.59056 0.2691 0.35399-0.022 1.4506 0.029 1.8032-0.0356s1.257-0.0222 1.4541-0.10905c0.19717-0.0868 0.75096 0.0448 0.96887-0.26441 0.21791-0.30927 0.21979-1.0246 0.21979-1.2917s-0.35015-0.57272-0.35015-0.57272"/>
    <path d="m111.56 99.171s-0.40024-4.069-0.37362-4.1741c0.0266-0.10518-0.029-4.9976-0.029-5.1439 0-0.14626 0.37594-4.1837 0.37594-4.1837"/>
    <path d="m114.09 99.039s-0.0808-5.0695-0.0808-5.1711c0-0.10158 0.0244-1.9224 0.0445-2.1799s0.0444-2.5314 0.10902-2.8617c0.0646-0.33031 0.27028-1.5218 0.27028-1.5218l0.98714-1.0783"/>
    <path d="m120.91 86.671 2.2961-2.0156s3.7953-3.2977 3.9943-3.4675c0.19902-0.16987 3.8645-5.509 3.8645-5.509l2.0463-3.5861 1.0375-2.8724 0.11531-0.03616"/>
    <path d="m121.38 89.073 2.1975-1.5334 4.7889-3.5834 2.9911-2.6288s2.1227-3.3115 2.2587-3.4277c0.13603-0.11613 1.7442-3.0174 1.7442-3.0174l2.003-4.9861"/>
    <path d="m134.21 66.078 1.2075-0.66467 0.87202-0.03728s1.0238 0.30901 1.1338 0.38522c0.11002 0.07621 1.2574 0.28044 1.3221 0.34516 0.0647 0.06471 0.68861 0.46625 0.71315 0.68619 0.0245 0.21994 0.24567 0.9374 0.24567 0.9374"/>
    <path d="m135.03 66.031 0.5224 1.2082 0.58675 0.23412s0.4142-0.07806 0.45996-0.2225c0.0458-0.14444 0.0827-0.79072 0.0605-0.89686s-0.37507-0.97771-0.37507-0.97771"/>
    <path d="m136.69 67.322 0.3373 0.28105 0.40584 0.05315s0.21854-0.06464 0.24487-0.16558c0.0263-0.10093 0.0934-0.4196 0.0934-0.5425 0-0.1229-0.17667-1.0716-0.17667-1.0716"/>
    <path d="m137.73 67.61 0.44158 0.45435s0.37245-0.0034 0.42295-0.0755c0.0505-0.07208 0.17551-0.1403 0.18662-0.36486 0.0111-0.22457-0.23274-1.4394-0.23274-1.4394"/>
    <path d="m138.93 67.587 0.33163 0.28858 0.19274-0.15828 0.0788-0.40081"/>
    <path d="m120.75 60.325-1.3614 1.0081-1.6747 0.26438-2.5006-1.1181-1.3302-1.2457-0.85781-1.1039-1.5552 0.0062-1.7823-0.93429-2.2115-2.0285"/>
    <path d="m107.47 55.173-1.398-2.5064-2.0352-5.096-0.43364-2.2029-0.35569-0.9974-3.0602 0.21408 0.53219 3.5113 1.9398 5.0445 3.123 3.8652 4.6745 4.3665-0.46905 1.719"/>
    <path d="m100.19 44.584-1.3887-2.897 0.26588-0.29109 0.80245 0.1946-0.66881-1.5861s0.16141-0.90365 0.38821-0.93572c0.2268-0.03208 0.96118 0.26279 1.0141 0.57862 0.053 0.31584 0.35921 1.5965 0.35921 1.5965l0.35235-2.2196 0.33526-0.18203 0.68711 0.29642 0.24456 0.38899-0.5883 1.8712"/>
    <path d="m102.58 39.528 0.96082 0.08206s0.22534 0.24666 0.22534 0.6332c0 0.38654-0.22285 0.82734-0.26677 1.0349-0.0439 0.2076-0.29606 0.80263-0.29606 0.80263l1.9962 0.47167 0.0789 0.50064s-0.16886 0.52841-0.36553 0.48395-0.76745-0.39597-0.76745-0.39597l-0.89761-0.26879 7.9e-4 1.4978"/>
    <path d="m113.02 58.129 1.1459-0.11508 1.1408 0.28719 0.77835 0.07357 0.23842-0.91122"/>
    <path d="m119.29 57.83-0.15617 1.8974 1.0123 0.14245 0.60076 0.45431"/>
    <path d="m116.32 57.464-1.7865-1.8119-0.706-1.7622-0.17785-1.5943 0.13283-1.2993-0.95067-0.9127-0.14452-1.5264 0.92137-0.80827 0.75888-0.20898 0.30345-1.2801"/>
    <path d="m114.37 47.54-0.58506 3.4564"/>
    <path d="m112.69 48.557 1.0455-3.2129s1.2249-1.914 1.465-2.0783c0.24008-0.16432 1.188-0.87459 1.606-0.96352 0.41798-0.08892 2.1438-0.08892 2.7409 0s2.0921 0.58432 2.6673 0.89441c0.57514 0.31008 1.7857 0.93794 2.2177 1.1555 0.43202 0.21756 1.1267 1.4032 1.3641 1.7721 0.23736 0.36883 0.68251 1.1711 0.77023 1.7875 0.0877 0.6164-3e-3 1.3276-0.22158 1.6321-0.21896 0.30454-0.95071 0.8148-1.1955 1.0596-0.24476 0.24476-1.1571 0.96266-1.444 1.0897-0.28696 0.12703-0.83901 0.21595-0.83901 0.21595l-0.0713-1.8979s0.13019-1.2679-0.0889-1.7473c-0.21911-0.47946-0.62315-2.2137-0.62315-2.2137l-0.61979 0.84613-1.3409-0.09301-0.39398-1.5044-0.90282 1.3975-0.56283-0.24748s0.65607-1.9177 0.44769-1.8732c-0.20839 0.04446-1.7993 1.5991-1.7993 1.5991l-2.2376 0.08491"/>
    <path d="m122.87 51.909 0.99346 0.42068s0.14072 0.06191 0.18518 0.35402c0.0445 0.2921-0.0424 0.72661-0.0424 0.72661l-0.5439 0.54016s-0.36147 0.2586-0.56562 0.21625c-0.20415-0.04235-0.4259-0.13127-0.4259-0.13127s-0.74759 1.4757-0.9214 1.7781c-0.17382 0.30243-0.25624 0.65716-0.42961 0.86154-0.17337 0.20438-0.83204 0.64899-0.83204 0.64899l-0.99729 0.50632"/>
    <path d="m115.23 53.57 2.0287 0.74648s1.0793 0.21437 1.5777 0.25883 1.8602-0.1965 1.8602-0.1965l-1.0672 1.8491-1.2005 0.50811s-0.85431 0.08893-1.0887 0.04446c-0.23435-0.04447-1.3459-0.7829-1.3459-1.0138 0-0.23092-0.88314-2.041-0.88314-2.041"/>
    <path d="m116.25 55.786s0.34432-0.21984 0.98143-0.19083c0.63711 0.02901 1.1444 0.1139 1.1444 0.1139l0.60824 0.75213"/>
    <path d="m115.46 54.314s0.57181 0.3472 0.62398 0.38939c0.0522 0.04219 1.0077 0.32145 1.2402 0.41311 0.23245 0.09165 0.8258 0.09288 1.0764 0.18482 0.25058 0.09194 1.4888 0.18898 1.4888 0.18898"/>
    <path d="m116.76 51.939s0.82852 0.55089 0.92729 0.61028c0.0988 0.05939 0.47303 0.1494 0.57674 0.1494 0.1037 0 0.2424 0.19762 0.0174 0.27306-0.22502 0.07543-0.4787 0.13899-0.61295 0.13899-0.13426 0-0.43728-0.04622-0.5314-0.27661-0.0941-0.23039-0.42516-0.74923-0.42516-0.74923z"/>
   </g>
   <g>
    <path d="m115.8 49.599c0.0998-0.01572 0.38147-0.4232 0.38147-0.4232s0.44701 0.10845 0.51708 0.0784c0.0701-0.03005 0.19509-0.18166 0.19509-0.18166l-0.0289-0.2513s-0.0965-0.06213-0.22411 0-0.40847 0.2242-0.40847 0.2242l-0.1485 0.12525-0.4013-0.23452-0.14617-0.7863s0.51115 0.43422 0.65962 0.44973c0.14847 0.0155 0.37329 0.12569 0.38828-0.0388 0.015-0.16449 0.20146-0.50922 0.20146-0.50922s0.31184-0.0575 0.39468-7.93e-4c0.0828 0.05674 0.25376 0.07813 0.31396 0.25999 0.0602 0.18186 0.1386 0.5253 0.1386 0.5253s0.0126 0.46381 0.0126 0.57482c0 0.11101-0.0483 0.31513-0.10964 0.49844-0.0614 0.18331-0.12741 0.38822-0.26598 0.57395-0.13858 0.18574-0.27861 0.33485-0.40581 0.4058-0.1272 0.07096-0.31456 0.26892-0.47166 0.21185-0.1571-0.05708-0.6346-0.41773-0.65033-0.53565-0.0157-0.11792-0.0732-0.36992-0.0629-0.50656 0.0103-0.13664 0.12091-0.45978 0.12091-0.45978z"/>
    <path d="m118.12 50.229 0.30022-0.41431s0.43862-0.08532 0.51344-0.08532c0.0748 0 0.42558-0.06238 0.42426-0.1255-1e-3 -0.06312-0.0569-0.28543-0.0569-0.28543s-0.30197-0.13837-0.36704-0.08898c-0.0651 0.04939-0.44218 0.40712-0.44218 0.40712l0.43399-0.69385s0.38248-0.3382 0.4288-0.36321c0.0463-0.025 0.42658-0.06286 0.42658-0.06286s0.0949 0.1893 0.19284 0.27612c0.0979 0.08682 0.054 0.28724 0.30807 0.34282 0.25406 0.05558 0.54755 0.10004 0.66407 0.11115 0.11651 0.01111 0.2885 0.01111 0.2885 0.01111s-0.14605 0.27299-0.37473 0.37148c-0.22869 0.09849-0.45371 0.13478-0.51903 0.14486-0.0653 0.01008-0.19642-0.06098-0.19642 0.10506 0 0.16604 0.0111 0.36051 0.0111 0.52392 0 0.16341-0.0142 0.33585-0.14719 0.47993-0.13296 0.14408-0.25306 0.4087-0.452 0.50747-0.19894 0.09877-0.25423 0.13202-0.521 0.1876-0.26677 0.05558-0.13568 0.08923-0.37609 0.05558s-0.364-0.08027-0.42889-0.20905c-0.0649-0.12878-0.047-0.45521-0.047-0.45521z"/>
    <path d="m104.85 74.739s-0.16687-0.66723-0.15589-0.72856c0.011-0.06133 0.0363-0.37048 0.11977-0.38138 0.0835-0.0109 0.5905-0.0033 0.65286-0.03359 0.0624-0.03027 0.22335-0.05914 0.37941-0.20419s0.30266-0.19615 0.2693-0.3957c-0.0334-0.19955-0.05-0.42006-0.2183-0.45298-0.16831-0.03292-0.53958-0.1166-0.60254 0.01011-0.063 0.1267-0.57822 1.0796-0.57822 0.96043 0-0.11915 0.6366-1.4417 0.6366-1.4417s0.27205-0.01111 0.46017-0.06655 0.68901-0.11197 0.74836-0.11197c0.0594 0 0.29249 0.08957 0.38077 0.23321 0.0883 0.14364 0.27311 0.35257 0.33928 0.55534 0.0662 0.20277 0.22674 0.35168 0.1224 0.83892s-0.14416 0.89145-0.18862 1.0539c-0.0445 0.16248-0.16277 0.4176-0.36294 0.58401-0.20018 0.16642-0.5626 0.41675-0.78091 0.44938-0.2183 0.03263-0.40963 0.0549-0.56239-0.06693s-0.49154-0.36492-0.52488-0.47227c-0.0333-0.10736-0.13423-0.32952-0.13423-0.32952z"/>
    <path d="m109.65 74.257s0.48457-0.10528 0.53009-0.10528c0.0455 0 0.22341 0.06586 0.39977-0.01111 0.17637-0.07697 0.3549-0.21904 0.3549-0.34482s-0.0136-0.40222-0.12534-0.41391-0.56494-0.26042-0.63229-0.14114c-0.0674 0.11928-0.46477 1.0117-0.46477 1.0117l0.1781-1.3273s0.17645-0.4224 0.28637-0.49919c0.10993-0.07678 0.40049-0.12201 0.54394-0.14378 0.14344-0.02177 0.55469-0.12312 0.73172 2.46e-4 0.17703 0.12337 0.37895 0.29222 0.46791 0.46942 0.089 0.1772 0.28796 0.48764 0.32131 0.75983 0.0333 0.27218-0.012 0.69117-7.9e-4 0.91232 0.0111 0.22116 0.0422 0.65031-0.0925 0.85163-0.13467 0.20132-0.28993 0.40121-0.45787 0.56885-0.16794 0.16763-0.31632 0.32364-0.53418 0.34572-0.21786 0.02207-0.50187 0.10088-0.74733-0.05573-0.24545-0.15661-0.68325-0.33571-0.69885-0.38271-0.0156-0.047-0.12674-0.43556-0.12674-0.62029 0-0.18474 0.0666-0.87446 0.0666-0.87446z"/>
   </g>
   <g fill="none">
    <path d="m104.62 71.78c0.0515-0.05152 1.5912-0.85604 1.5912-0.85604s0.58499-0.10763 0.76785-0.10763 0.58762 0.15041 0.58638 0.01111c-1e-3 -0.1393-0.0585-1.038-0.18034-1.0452-0.12183-0.0072-1.2519 0.23676-1.418 0.31516-0.16618 0.0784-0.71178 0.40808-0.85652 0.60852-0.14474 0.20044-0.49047 1.074-0.49047 1.074z"/>
    <path d="m109.83 70.114c0.49538 0.02006 1.8517 0.1998 1.8517 0.1998s0.68894 0.23195 0.70027 0.3513c0.0113 0.11935 0.54944 1.2094 0.54944 1.2094s-0.91271-0.55964-1.0409-0.61854c-0.1282-0.05889-0.87961-0.31202-0.96562-0.31202-0.086 0-1.2198 0.02209-1.2198 0.02209z"/>
    <path d="m106.99 78.582c0.37532 0.1128 0.82659 0.10207 1.0731 0.11607 0.24654 0.014 1.0708-0.18765 1.0708-0.18765s0.1432 0.12884-0.11271 0.36304c-0.2559 0.23419-0.52069 0.34515-0.71707 0.45419-0.19638 0.10905-0.50997 0.26466-0.69747 0.15351-0.18749-0.11115-0.61668-0.89916-0.61668-0.89916z"/>
    <path d="m105.43 80.812c0.52045 0.0309 6.6988-0.37911 6.6988-0.37911s-1.1066 1.8689-1.3678 2.1301c-0.26114 0.26114-2.0844 1.4072-2.2385 1.4072s-1.5793-0.2935-1.678-0.41438c-0.0987-0.12089-1.4145-2.7438-1.4145-2.7438z"/>
    <path d="m106.27 82.121 5.0799-0.65566 0.0893 0.09672"/>
    <path d="m106.68 83.151s0.40058-0.60277 0.65939-0.66799c0.25881-0.06523 1.183-0.20572 1.4218-0.20572 0.23872 0 0.50098-0.1533 0.61104 0.13011s0.37814 0.48966 0.37814 0.48966l0.23202 0.25453"/>
    <path d="m104.15 110.7s1.7322 4.394 1.7322 4.9432 2.5968 20.83 2.8557 20.79c0.25894-0.0397 4.7041 0.45185 4.5429-0.2371-0.16121-0.68896-2.9527-22.525-2.9527-22.525l4.5536-0.24641s2.3694 23.582 2.6604 23.453c0.29107-0.1292 3.8733 0.5092 3.7057-0.71402-0.16753-1.2232-2.6788-22.876-2.6788-22.876s0.66304-1.087 0.66304-1.2935c0-0.20652 0.22515-2.9436 0.22515-2.9436"/>
    <path d="m109.12 136.41-0.0965 2.0256 1.018 0.65s0.88832-0.0146 1.3012-0.14592c0.41289-0.13128 1.1155-0.57052 1.1155-0.57052l-0.13792-1.6844"/>
    <path d="m117.67 136.7 0.60689 1.9707h1.2645s0.79792-0.12365 1.0286-0.29491c0.23062-0.17126 0.71732-0.32605 0.6284-0.60998-0.0889-0.28392-0.35569-0.9941-0.35569-0.9941"/>
    <path d="m109.03 138.44s-0.53895 1.0942-0.79018 1.1785c-0.25123 0.0844-2.9454 0.18488-3.2486 0.18488-0.30321 0-1.7656-0.0492-1.7656-0.0492l-0.85415 0.65287 2e-3 1.1349"/>
    <path d="m113.41 143.16c0.0741-0.12879 0.24738-1.2961 0.24738-1.4551 0-0.15901 4e-3 -0.94886-0.0786-1.2557-0.083-0.30683-0.35479-1.095-0.49626-1.3765-0.14148-0.28148-0.61991-0.69874-0.61991-0.69874"/>
    <path d="m114.61 140.25c0.13557 4e-3 2.1738-0.54665 2.3519-0.63802 0.17809-0.0914 1.3145-0.93857 1.3145-0.93857"/>
    <path d="m114.61 140.25s-0.097 0.85311-0.1172 1.0182c-0.0202 0.16515 0.20363 1.5316 0.20363 1.5316l0.3193 0.32426"/>
    <path d="m123.11 139.36s-0.4582-0.78896-0.48811-0.86238c-0.0299-0.0734-0.5711-0.82242-0.5711-0.82242l-0.77862 0.21177"/>
    <path d="m103.05 74.472 1.2005-3.6443 1.5108-2.669 0.88854-0.35028 2.5616 0.79922 1.7354-0.5663 0.74539-0.15446 2.2917 3.9693s0.29906 2.6176 0.3305 2.9092c0.0314 0.29159 0.53592 1.9284 0.53592 1.9284"/>
    <path d="m105.88 57.516c-0.18358 0.03649-4.2468 0.87429-4.3442 0.93772-0.0974 0.06344-3.5076 1.1819-3.5076 1.1819l-1.1147 0.89792s-4.4365 3.7958-4.5344 3.8907c-0.09793 0.09488-2.5122 2.3879-2.5122 2.3879l-2.77 2.0914s-3.5607 4.8199-3.5853 4.9919c-0.02458 0.172-2.8704 4.3975-2.8704 4.3975s-1.3308 3.2742-1.4881 3.7696c-0.15736 0.49538-1.8046 6.2195-1.8046 6.2195l-0.84401 6.2892s-0.17591 4.3959-0.14447 4.8327c0.03144 0.43675 0.1746 2.9778 0.20604 3.2812s0.25863 7.1638 0.25863 7.1638 0.74516 5.4914 0.74516 6.1192 0.70874 3.8571 0.74018 4.3868c0.03144 0.52969 0.43727 2.8131 0.43727 2.8131l1.813 6.9542s3.6339 6.8637 3.8136 7.2662c0.17972 0.40255 3.2957 5.2842 3.2957 5.2842l6.8929 6.1473s6.1225 2.3389 6.4282 2.4935c0.30576 0.15461 5.5102 1.3834 6.1241 1.376 0.61392-7e-3 5.8472 0.063 6.1233 0.063s5.317-1.1924 6.2453-1.5933c0.92836-0.40092 3.5134-2.0227 3.5134-2.0227l6.5053 10.974 11.447-7.1218-7.1942-9.135s2.2134-2.9867 2.3685-3.1417c0.15506-0.15506 2.486-2.7637 2.6092-3.0703 0.12318-0.30666 2.9221-4.797 2.9221-5.0401s1.403-5.1135 1.5293-5.3523c0.12625-0.23887 1.2672-4.0737 1.2672-4.0737s1.293-5.2283 1.3952-5.7832c0.1022-0.5549 0.21651-6.1812 0.21651-6.3192 0-0.13805 0.19023-5.3426 0.19023-5.3426s-0.13832-7.065-0.20226-7.8776c-0.064-0.81266-1.1345-7.8927-1.1345-7.8927s-1.0404-6.8062-1.2226-7.3577-2.157-5.728-2.6158-6.4379c-0.45883-0.7099-3.8472-5.2864-3.8472-5.2864"/>
    <path d="m131.76 64.423c-0.1521-0.45444-4.2122-4.6231-4.423-4.6832-0.21083-0.06015-5.7656-2.6072-5.7656-2.6072"/>
    <path d="m114.07 56.229-2.3509 0.15103-1.5206 0.20906"/>
   </g>
  </g>
  <g transform="matrix(.68978 0 0 .68978 215.81 -52.864)" stroke="#000">
   <path d="m132.4 40.484c0 0.96858 6.0036 4.7251 6.0036 4.7251l-4.247 2.6994-4.008 2.5782s-2.1878 1.0414-2.6704 1.1218c-0.48267 0.08042-0.92394 0.08042-0.92394 0.08042s-0.92831-0.53992-0.62008-0.92997 1.4563-2.5086 1.9024-3.4405c0.44608-0.93194 4.3766-7.1949 4.5633-6.8345z" fill="none" stroke-width=".26458px"/>
   <path d="m134.52 42.304c0.32157-0.2163 7.5479-5.7849 7.9751-6.2195 0.42726-0.4346 2.7741-3.6027 2.7741-3.6027l2.4304 2.9544s-3.7889 1.6627-4.2374 1.8726c-0.4485 0.20992-7.32 6.217-7.32 6.217z" stroke-width=".26458px"/>
   <g fill="none">
    <path d="m146.6 37.06c0.0485-0.06703 0.22261-0.4271 0.22261-0.4271s0.21146 0.33271 0.21146 0.40254c0 0.06983 0.27336 0.41969 0.27336 0.50237 0 0.08268 0.0261 0.33955-0.075 0.37736-0.10114 0.03781-0.36525 0.16044-0.45956 0.1784-0.0943 0.01796-0.43234-0.15482-0.43234-0.15482s-0.0296-0.27939 0.0332-0.38645c0.0628-0.10706 0.2263-0.4923 0.2263-0.4923z" stroke-width=".06578px"/>
    <path d="m148.48 36.245c-8e-3 -0.06813-0.10334-0.38572-0.10334-0.38572s0.31567 0.08479 0.3548 0.12746c0.0391 0.04267 0.40224 0.10325 0.44857 0.15377 0.0463 0.05052 0.20621 0.19288 0.16564 0.27262-0.0406 0.07981-0.13327 0.30272-0.18083 0.36656-0.0476 0.06383-0.35093 0.14768-0.35093 0.14768s-0.1747-0.15409-0.1963-0.25472c-0.0216-0.10064-0.13762-0.42764-0.13762-0.42764z" stroke-width=".054539px"/>
    <path d="m141.15 48.033c1.5893 0 18.39-2.0055 18.39-1.5524 0 0.45311 1.7613 19.122 1.7613 19.122l-17.729 0.83972-0.92116-3.061z" stroke-width=".26458px"/>
   </g>
   <path d="m144.09 50.575 4.6095-1.2213s2.821-0.28444 3.8082-0.4102c0.98724-0.12575 2.3078-0.12211 3.1808 0 0.87298 0.12211 2.0824 0.60976 2.0824 0.60976s0.0859 3.1742-0.072 3.8097c-0.15797 0.6355-1.7765 6.1304-2.0848 6.8038-0.30829 0.67335 0.0831 1.1729-0.74418 1.3593-0.82734 0.18635-6.5696 0.64765-6.5696 0.64765z" stroke-width=".26458px"/>
   <g fill="none" stroke-width=".26458px">
    <path d="m147.06 47.111c-0.30742-0.54953-1.9812-3.1213-0.94376-3.3071 1.0375-0.18574 8.254-0.55568 8.254-0.55568l0.11911 3.5068"/>
    <path d="m146.31 45.866c0.19322-0.11044 2.6315-2.3575 2.6315-2.3575"/>
    <path d="m147.06 47.111 3.6618-3.6227"/>
    <path d="m148.76 47.106 3.5597-3.4762"/>
    <path d="m150.96 47.097 3.4119-3.8486"/>
   </g>
  </g>
  <g transform="matrix(1.6301 0 0 1.6301 -63.945 -146.43)" fill="none" stroke="#000">
   <circle cx="158.9" cy="110.77" r="10.794" stroke-width=".52917" style="paint-order:stroke fill markers"/>
   <g stroke-width=".26458px">
    <path d="m153.46 101.81c-0.18994 0.15628-0.95956 2.2999-0.95956 2.2999s2.2524 2.1859 2.7191 2.3108c0.46671 0.1249 5.8654 0.0776 5.8654 0.0776l2.8816-3.42-2.1683-2.6581"/>
    <path d="m155.08 106.8-2.8309 4.389 2.9697 3.5669s5.8141 0.81411 5.7964 0.58813c-0.0177-0.22597 3.1442-4.9677 3.1442-4.9677l-3.081-3.8771"/>
    <path d="m164.16 110.38 3.7997 0.37693 0.80992-4.5709-1.4135-2.0397-3.3955-1.0634"/>
    <path d="m167.96 110.76 1.317 3.2906-2.8665 4.6281-3.2098-0.55141-2.2612-2.6945"/>
    <path d="m163.2 118.12-1.27 3.0523-5.2058 0.38037-1.3674-2.9357-0.13779-3.8616"/>
    <path d="m155.36 118.62-3.5132 0.12147s-2.8138-3.7451-2.8939-3.9455c-0.0802-0.20044-0.83197-2.4744-0.83197-2.4744l4.1316-1.13"/>
    <path d="m152.5 104.11-1.3002-0.90157"/>
   </g>
  </g>
 </g>
</svg>
