<?xml version="1.0" standalone="no"?>
<!DOCTYPE svg PUBLIC "-//W3C//DTD SVG 20010904//EN"
 "http://www.w3.org/TR/2001/REC-SVG-20010904/DTD/svg10.dtd">
<svg version="1.0" xmlns="http://www.w3.org/2000/svg"
 width="260.000000pt" height="260.000000pt" viewBox="0 0 260.000000 260.000000"
 preserveAspectRatio="xMidYMid meet">
<metadata>
Created by potrace 1.14, written by Peter Selinger 2001-2017
</metadata>
<g transform="translate(0.000000,260.000000) scale(0.100000,-0.100000)"
fill="#000000" stroke="none">
<path d="M1155 2394 c-11 -2 -51 -12 -90 -20 -227 -52 -415 -211 -524 -446
-130 -278 -130 -696 0 -976 143 -309 408 -472 764 -472 l104 0 133 -144 133
-144 155 -1 154 -1 -40 42 c-68 72 -259 282 -272 299 -11 15 -5 21 52 53 145
81 247 191 327 351 158 319 144 782 -33 1083 -18 31 -76 100 -128 152 -74 74
-113 105 -175 137 -131 68 -205 85 -385 89 -85 1 -164 1 -175 -2z m278 -209
c216 -46 384 -235 437 -495 25 -119 28 -358 6 -470 -52 -268 -192 -448 -401
-513 -103 -32 -263 -30 -362 5 -186 66 -317 224 -374 451 -30 118 -37 350 -15
476 20 116 54 214 98 289 43 73 140 170 205 205 114 61 270 81 406 52z"/>
</g>
</svg>
